<?xml version="1.0" encoding="UTF-8"?>
<svg version="1.1" xmlns="http://www.w3.org/2000/svg" width="512" height="512">
<path d="M0 0 C2.13928761 -0.00135865 4.27857499 -0.00314117 6.41786194 -0.00531006 C12.17409244 -0.00982956 17.93030482 -0.00811754 23.6865356 -0.00493097 C29.74476462 -0.00237848 35.80299222 -0.00475293 41.86122131 -0.00631714 C52.03118159 -0.00813059 62.20113458 -0.00575435 72.37109375 -0.00097656 C84.08402495 0.00446299 95.79693874 0.00270228 107.50986952 -0.00280297 C117.61320739 -0.00735939 127.71654006 -0.00797227 137.81987864 -0.0053643 C143.83357024 -0.00381521 149.84725369 -0.00356985 155.86094475 -0.00690079 C161.51885851 -0.00981638 167.17675009 -0.00773693 172.83466148 -0.00200653 C174.89560662 -0.00069847 176.95655367 -0.00103923 179.01749802 -0.0032692 C214.15004524 -0.03774127 214.15004524 -0.03774127 227.25024414 2.81689453 C228.07355225 2.9913208 228.89686035 3.16574707 229.74511719 3.34545898 C254.51661297 8.88239176 275.2107828 21.76189294 288.96069336 43.32226562 C304.99811983 69.62023433 305.38736918 99.69394621 305.3215332 129.63671875 C305.32425397 131.76553465 305.3278209 133.89434961 305.33215332 136.02316284 C305.34115185 141.72580897 305.33778542 147.42838149 305.33139515 153.13102865 C305.32626794 159.15124783 305.33104512 165.17146144 305.33416748 171.19168091 C305.33778836 181.29641836 305.33305827 191.40112641 305.32348633 201.50585938 C305.31261137 213.11882 305.31612807 224.73171031 305.32713914 236.34466922 C305.336273 246.38709604 305.33746756 256.42950194 305.3322618 266.47193158 C305.3291746 272.43825817 305.32864154 278.40455195 305.33533478 284.37087631 C305.39830713 349.57082726 305.39830713 349.57082726 299.06274414 369.12939453 C298.7030957 370.25087891 298.34344727 371.37236328 297.97290039 372.52783203 C289.62205235 396.20262682 272.79619403 413.0770486 250.66821289 424.00048828 C237.3479406 430.30322475 222.53888534 432.9477885 207.88304138 433.70333862 C206.72965197 433.76441482 206.72965197 433.76441482 205.55296177 433.82672489 C195.74739128 434.29884035 185.94001274 434.26939702 176.12548828 434.25878906 C173.98620067 434.26014771 171.84691329 434.26193023 169.70762634 434.26409912 C163.95139584 434.26861862 158.19518346 434.2669066 152.43895268 434.26372004 C146.38072366 434.26116755 140.32249606 434.26354199 134.26426697 434.2651062 C124.09430669 434.26691966 113.9243537 434.26454341 103.75439453 434.25976562 C92.04146333 434.25432607 80.32854955 434.25608678 68.61561877 434.26159203 C58.51228089 434.26614845 48.40894822 434.26676133 38.30560964 434.26415336 C32.29191804 434.26260427 26.27823459 434.26235892 20.26454353 434.26568985 C14.60662977 434.26860545 8.94873819 434.26652599 3.2908268 434.26079559 C1.22988166 434.25948753 -0.83106539 434.25982829 -2.89200974 434.26205826 C-38.02833902 434.29653404 -38.02833902 434.29653404 -51.31225586 431.37939453 C-52.55881958 431.11497559 -52.55881958 431.11497559 -53.83056641 430.84521484 C-60.84387915 429.285945 -67.41087166 427.16037446 -73.93725586 424.12939453 C-75.12448242 423.58798828 -76.31170898 423.04658203 -77.53491211 422.48876953 C-100.1764865 411.60974042 -114.94039988 392.3801652 -123.24975586 369.00439453 C-129.53216719 348.52640696 -129.24275061 325.8642227 -129.19604492 304.62207031 C-129.19876569 302.49325441 -129.20233262 300.36443945 -129.20666504 298.23562622 C-129.21566357 292.53298009 -129.21229714 286.83040757 -129.20590687 281.12776041 C-129.20077966 275.10754124 -129.20555684 269.08732762 -129.2086792 263.06710815 C-129.21230008 252.9623707 -129.20756998 242.85766266 -129.19799805 232.75292969 C-129.18712309 221.13996907 -129.19063979 209.52707875 -129.20165086 197.91411984 C-129.21078472 187.87169302 -129.21197928 177.82928712 -129.20677352 167.78685749 C-129.20368632 161.82053089 -129.20315326 155.85423712 -129.2098465 149.88791275 C-129.27281885 84.6879618 -129.27281885 84.6879618 -122.93725586 65.12939453 C-122.57760742 64.00791016 -122.21795898 62.88642578 -121.84741211 61.73095703 C-113.68970449 38.6037186 -96.76468299 20.83860374 -74.99731445 10.07519531 C-61.5944904 3.9217774 -46.40992145 1.32335397 -31.76927185 0.55935669 C-30.99949963 0.51835724 -30.22972741 0.47735779 -29.43662876 0.43511593 C-19.6279459 -0.04008275 -9.81776223 -0.01061145 0 0 Z " fill="#C5C4C4" transform="translate(167.937255859375,42.87060546875)"/>
<path d="M0 0 C0.92458008 -0.00298096 1.84916016 -0.00596191 2.80175781 -0.0090332 C9.3434232 0.20696518 14.50918353 2.10421079 20.4375 4.75 C22.01723305 5.3430141 23.60017831 5.92760847 25.1875 6.5 C33.01851723 9.61248698 40.43946175 14.08464117 47.4375 18.75 C52.98951671 19.28384776 56.40752818 17.94489679 61.4375 15.75 C65.75104568 14.90604541 68.09423519 15.91806959 71.6875 18.1875 C80.92988622 24.89439126 89.02402519 33.11239946 97.125 41.125 C98.02283203 41.99382812 98.92066406 42.86265625 99.84570312 43.7578125 C119.8430243 63.564683 126.52614891 90.7778579 126.75 118.125 C126.72210031 128.38371595 126.03352531 137.7899507 123.4375 147.75 C123.25525879 148.48009277 123.07301758 149.21018555 122.88525391 149.96240234 C117.56396156 171.18088887 108.90015063 195.65658337 92.4375 210.75 C91.22536092 211.95451556 90.01682119 213.1626678 88.8125 214.375 C88.24917969 214.92542969 87.68585938 215.47585938 87.10546875 216.04296875 C85.34004627 217.84973602 83.74150768 219.74693717 82.125 221.6875 C64.57072451 241.8438473 36.32317207 250.17045578 10.45703125 252.23828125 C-1.02820662 252.74780563 -12.40580642 251.03050754 -23.75 249.4375 C-24.50938873 249.33117249 -25.26877747 249.22484497 -26.05117798 249.11529541 C-38.08403454 247.39773514 -48.9397524 244.85618768 -59.9375 239.5625 C-60.75968018 239.16812744 -61.58186035 238.77375488 -62.42895508 238.36743164 C-83.34103244 228.12574432 -98.63450127 211.77789086 -106.5625 189.75 C-110.55152592 177.35361004 -112.6493811 165.37833516 -112.87109375 152.36328125 C-112.89385124 151.03762146 -112.89385124 151.03762146 -112.91706848 149.68518066 C-113.17122319 131.42423933 -112.76577505 113.61380394 -109.8125 95.5625 C-109.6861618 94.77525543 -109.55982361 93.98801086 -109.42965698 93.1769104 C-108.02684884 84.64288936 -106.26375128 76.62479764 -102.5625 68.75 C-102.2325 68.0072583 -101.9025 67.2645166 -101.5625 66.49926758 C-90.10394132 40.92569658 -79.10334277 20.93104506 -52.02270508 9.98583984 C-45.41503393 7.62585739 -38.64729264 5.99528855 -31.8125 4.4375 C-31.04914337 4.26190552 -30.28578674 4.08631104 -29.4992981 3.90539551 C-19.6776935 1.68223563 -10.11433828 0.01058667 0 0 Z " fill="#F9F9F9" transform="translate(248.5625,133.25)"/>
<path d="M0 0 C2.13928761 -0.00135865 4.27857499 -0.00314117 6.41786194 -0.00531006 C12.17409244 -0.00982956 17.93030482 -0.00811754 23.6865356 -0.00493097 C29.74476462 -0.00237848 35.80299222 -0.00475293 41.86122131 -0.00631714 C52.03118159 -0.00813059 62.20113458 -0.00575435 72.37109375 -0.00097656 C84.08402495 0.00446299 95.79693874 0.00270228 107.50986952 -0.00280297 C117.61320739 -0.00735939 127.71654006 -0.00797227 137.81987864 -0.0053643 C143.83357024 -0.00381521 149.84725369 -0.00356985 155.86094475 -0.00690079 C161.51885851 -0.00981638 167.17675009 -0.00773693 172.83466148 -0.00200653 C174.89560662 -0.00069847 176.95655367 -0.00103923 179.01749802 -0.0032692 C214.15004524 -0.03774127 214.15004524 -0.03774127 227.25024414 2.81689453 C228.07355225 2.9913208 228.89686035 3.16574707 229.74511719 3.34545898 C254.51661297 8.88239176 275.2107828 21.76189294 288.96069336 43.32226562 C304.99811983 69.62023433 305.38736918 99.69394621 305.3215332 129.63671875 C305.32425397 131.76553465 305.3278209 133.89434961 305.33215332 136.02316284 C305.34115185 141.72580897 305.33778542 147.42838149 305.33139515 153.13102865 C305.32626794 159.15124783 305.33104512 165.17146144 305.33416748 171.19168091 C305.33778836 181.29641836 305.33305827 191.40112641 305.32348633 201.50585938 C305.31261137 213.11882 305.31612807 224.73171031 305.32713914 236.34466922 C305.336273 246.38709604 305.33746756 256.42950194 305.3322618 266.47193158 C305.3291746 272.43825817 305.32864154 278.40455195 305.33533478 284.37087631 C305.39830713 349.57082726 305.39830713 349.57082726 299.06274414 369.12939453 C298.7030957 370.25087891 298.34344727 371.37236328 297.97290039 372.52783203 C289.62205235 396.20262682 272.79619403 413.0770486 250.66821289 424.00048828 C237.3479406 430.30322475 222.53888534 432.9477885 207.88304138 433.70333862 C206.72965197 433.76441482 206.72965197 433.76441482 205.55296177 433.82672489 C195.74739128 434.29884035 185.94001274 434.26939702 176.12548828 434.25878906 C173.98620067 434.26014771 171.84691329 434.26193023 169.70762634 434.26409912 C163.95139584 434.26861862 158.19518346 434.2669066 152.43895268 434.26372004 C146.38072366 434.26116755 140.32249606 434.26354199 134.26426697 434.2651062 C124.09430669 434.26691966 113.9243537 434.26454341 103.75439453 434.25976562 C92.04146333 434.25432607 80.32854955 434.25608678 68.61561877 434.26159203 C58.51228089 434.26614845 48.40894822 434.26676133 38.30560964 434.26415336 C32.29191804 434.26260427 26.27823459 434.26235892 20.26454353 434.26568985 C14.60662977 434.26860545 8.94873819 434.26652599 3.2908268 434.26079559 C1.22988166 434.25948753 -0.83106539 434.25982829 -2.89200974 434.26205826 C-38.02833902 434.29653404 -38.02833902 434.29653404 -51.31225586 431.37939453 C-52.55881958 431.11497559 -52.55881958 431.11497559 -53.83056641 430.84521484 C-60.84387915 429.285945 -67.41087166 427.16037446 -73.93725586 424.12939453 C-75.12448242 423.58798828 -76.31170898 423.04658203 -77.53491211 422.48876953 C-100.1764865 411.60974042 -114.94039988 392.3801652 -123.24975586 369.00439453 C-129.53216719 348.52640696 -129.24275061 325.8642227 -129.19604492 304.62207031 C-129.19876569 302.49325441 -129.20233262 300.36443945 -129.20666504 298.23562622 C-129.21566357 292.53298009 -129.21229714 286.83040757 -129.20590687 281.12776041 C-129.20077966 275.10754124 -129.20555684 269.08732762 -129.2086792 263.06710815 C-129.21230008 252.9623707 -129.20756998 242.85766266 -129.19799805 232.75292969 C-129.18712309 221.13996907 -129.19063979 209.52707875 -129.20165086 197.91411984 C-129.21078472 187.87169302 -129.21197928 177.82928712 -129.20677352 167.78685749 C-129.20368632 161.82053089 -129.20315326 155.85423712 -129.2098465 149.88791275 C-129.27281885 84.6879618 -129.27281885 84.6879618 -122.93725586 65.12939453 C-122.57760742 64.00791016 -122.21795898 62.88642578 -121.84741211 61.73095703 C-113.68970449 38.6037186 -96.76468299 20.83860374 -74.99731445 10.07519531 C-61.5944904 3.9217774 -46.40992145 1.32335397 -31.76927185 0.55935669 C-30.99949963 0.51835724 -30.22972741 0.47735779 -29.43662876 0.43511593 C-19.6279459 -0.04008275 -9.81776223 -0.01061145 0 0 Z M-82.56225586 48.75439453 C-100.16672829 70.02126312 -100.24625383 95.78943533 -100.21191406 122.06640625 C-100.21627304 124.30111866 -100.22146008 126.53582957 -100.22740173 128.77053833 C-100.24067433 134.7830453 -100.24138371 140.79548897 -100.23883843 146.80800772 C-100.23776087 151.85220303 -100.24267192 156.89638595 -100.24744385 161.94057858 C-100.25912761 174.53069785 -100.25833728 187.1207788 -100.25188705 199.71089746 C-100.24672017 210.59163551 -100.2579763 221.47228398 -100.27698527 232.35300432 C-100.29645405 243.58490719 -100.30431404 254.81676906 -100.30086201 266.04869282 C-100.2990603 272.3307408 -100.30157333 278.61270668 -100.31557655 284.89474106 C-100.32826389 290.80634593 -100.32610896 296.71777294 -100.31316566 302.62937546 C-100.31082403 304.78139815 -100.3134463 306.9334338 -100.32178879 309.08544159 C-100.35986809 319.68385773 -100.05960624 330.06914736 -98.60148621 340.57913208 C-98.48521922 341.42460409 -98.36895224 342.2700761 -98.24916202 343.14116848 C-95.59051931 360.32439606 -86.10834149 376.61525094 -72.08642578 386.98364258 C-55.29547926 398.64906256 -36.93050221 401.28998397 -16.89672852 401.26983643 C-15.94926789 401.27280755 -15.00180727 401.27577867 -14.02563572 401.27883983 C-10.88418736 401.2874383 -7.7427775 401.2890275 -4.60131836 401.29052734 C-2.33498556 401.29516182 -0.06865353 401.30018732 2.19767761 401.30557251 C8.33240355 401.31863835 14.46711857 401.32513013 20.60185623 401.32958317 C24.44289545 401.33252347 28.28393175 401.33663006 32.12496948 401.34108734 C42.78999237 401.35318546 53.45501168 401.36357094 64.12004089 401.36696243 C64.8008283 401.367182 65.48161572 401.36740157 66.18303305 401.36762778 C66.8653131 401.36784606 67.54759316 401.36806434 68.25054836 401.36828923 C69.63277118 401.36873268 71.01499399 401.36917924 72.3972168 401.36962891 C73.42563004 401.36996105 73.42563004 401.36996105 74.4748193 401.37029991 C85.56757387 401.37424238 96.66026253 401.39168431 107.75299168 401.41498843 C119.1812537 401.43880081 130.60946794 401.45091166 142.03775787 401.45233035 C148.43835767 401.45337364 154.83886435 401.45917956 161.23944092 401.47714996 C167.26747267 401.49374649 173.29534245 401.49573044 179.32338905 401.48701096 C181.52140045 401.48624673 183.71942097 401.49050096 185.9174099 401.50046921 C209.08985545 401.59929939 231.2273886 400.17008137 250.06274414 385.12939453 C250.68407227 384.67048828 251.30540039 384.21158203 251.94555664 383.73876953 C267.69208948 371.45223718 273.71235372 352.09121638 276.06274414 333.12939453 C276.68767688 325.25105069 276.59239352 317.35577801 276.54858398 309.45874023 C276.55073629 307.16960433 276.55462347 304.88046951 276.56008911 302.59133911 C276.56968439 296.44063339 276.55460385 290.29022331 276.53418303 284.13955331 C276.51645309 277.66580883 276.52014015 271.19207132 276.52090454 264.7183075 C276.5190388 253.85585577 276.50188284 242.9935188 276.47436523 232.13110352 C276.44618128 220.99957237 276.43202502 209.86813959 276.43334961 198.73657227 C276.43342952 198.05032276 276.43350943 197.36407325 276.43359177 196.6570283 C276.43371283 195.62927658 276.43371283 195.62927658 276.43383634 194.58076221 C276.43529251 181.18906419 276.42128546 167.79742116 276.40294313 154.40573478 C276.39870291 150.57439032 276.39726387 146.74305351 276.3964653 142.91170692 C276.39444034 136.86959673 276.38210117 130.82758769 276.36213303 124.78551102 C276.35634571 122.58224419 276.35381938 120.37896572 276.3549881 118.1756916 C276.3641521 90.35714954 274.54514113 65.26911526 254.19555664 44.19580078 C226.98009422 18.84363765 184.85315906 23.68672905 150.57418275 23.79228115 C144.65913551 23.80750684 138.74408882 23.80614743 132.82902527 23.8069458 C122.91528166 23.81061665 113.00160819 23.82547843 103.08789062 23.84814453 C90.39686366 23.87710306 77.70589273 23.88738059 65.01483631 23.89182663 C54.04261593 23.89581662 43.07040751 23.90830736 32.09819579 23.9221735 C28.59744974 23.92625185 25.0967041 23.92918764 21.5959568 23.93196869 C16.08569715 23.93689374 10.57547066 23.9471503 5.06522751 23.96140671 C3.05378075 23.96589292 1.04232956 23.96875954 -0.96912193 23.9698143 C-31.28567172 23.98926576 -60.40724517 25.45941684 -82.56225586 48.75439453 Z " fill="#010101" transform="translate(167.937255859375,42.87060546875)"/>
<path d="M0 0 C1.58748568 0.6562063 3.1760303 1.30985671 4.765625 1.9609375 C5.52681641 2.27514648 6.28800781 2.58935547 7.07226562 2.91308594 C9.7554574 3.97471814 12.48376318 4.80735542 15.25 5.625 C32.5699701 11.31036415 46.32846681 21.73331947 58.14453125 35.421875 C60.07468396 37.62143717 62.08435512 39.65459768 64.1875 41.6875 C68.09363845 45.53175903 71.48566666 49.70326779 74.91015625 53.9765625 C77.04565714 56.57725827 79.26898142 59.03886242 81.5625 61.5 C92.88338272 73.98859615 103.1448809 88.17812879 107.1875 104.75 C107.47560547 105.74386719 107.47560547 105.74386719 107.76953125 106.7578125 C110.70096837 117.17601349 110.39103482 128.20664431 110.375 138.9375 C110.37459213 139.96455551 110.37459213 139.96455551 110.37417603 141.01235962 C110.3477635 155.4726865 109.09070277 168.77887936 105.1875 182.75 C104.80975034 184.18972513 104.43356164 185.62986037 104.05859375 187.0703125 C99.40578997 204.71010393 92.35803108 218.55326213 81.203125 233.0234375 C79.16489917 235.68888914 79.16489917 235.68888914 77.5625 238.4609375 C75.82346761 241.3560312 73.57768543 243.35981457 71.1875 245.75 C69.43316327 248.06363216 67.71627596 250.39711864 66.03125 252.76171875 C63.91650169 255.04224182 62.1214725 255.81052593 59.1875 256.75 C59.1875 257.41 59.1875 258.07 59.1875 258.75 C57.57350386 260.06730567 55.89336161 261.30404267 54.1875 262.5 C50.65977297 264.98936008 47.19815092 267.5088145 43.8125 270.1875 C40.99740467 272.3248872 38.81116595 273.52352088 35.1875 273.75 C35.1875 274.41 35.1875 275.07 35.1875 275.75 C33.94289217 276.42667998 32.69153104 277.09094719 31.4375 277.75 C30.74140625 278.12125 30.0453125 278.4925 29.328125 278.875 C27.1875 279.75 27.1875 279.75 23.1875 279.75 C23.1875 280.41 23.1875 281.07 23.1875 281.75 C6.89126899 286.66837958 6.89126899 286.66837958 -0.9921875 288.28515625 C-2.81946343 288.58690841 -2.81946343 288.58690841 -3.8125 289.75 C-6.7923847 290.12578842 -9.76185961 290.45691037 -12.75 290.75 C-14.40530233 290.91310908 -16.06027422 291.07961794 -17.71484375 291.25 C-18.45210693 291.3221875 -19.18937012 291.394375 -19.94897461 291.46875 C-21.90006076 291.66514408 -21.90006076 291.66514408 -23.8125 292.75 C-26.84490904 292.8741326 -29.85327483 292.93852825 -32.88671875 292.953125 C-33.80274368 292.95882507 -34.71876862 292.96452515 -35.66255188 292.97039795 C-37.61201826 292.97986404 -39.56150076 292.98638829 -41.51098633 292.99023438 C-44.4431738 292.99981434 -47.37462162 293.03076766 -50.30664062 293.0625 C-64.13231707 293.14163595 -76.71437882 292.03485035 -89.75 287.0625 C-90.91402344 286.62550781 -92.07804687 286.18851562 -93.27734375 285.73828125 C-94.11394531 285.41214844 -94.95054687 285.08601563 -95.8125 284.75 C-95.8125 284.09 -95.8125 283.43 -95.8125 282.75 C-96.72 282.62625 -97.6275 282.5025 -98.5625 282.375 C-101.40220323 281.82890323 -103.33840591 281.17736197 -105.8125 279.75 C-105.8125 279.09 -105.8125 278.43 -105.8125 277.75 C-106.49828125 277.6675 -107.1840625 277.585 -107.890625 277.5 C-122.98915154 273.62444239 -138.67789611 256.72233796 -146.8125 244.125 C-147.82491169 242.34031739 -148.82386844 240.5479647 -149.8125 238.75 C-150.58347705 237.49346711 -151.36135168 236.24115117 -152.14453125 234.9921875 C-152.97162707 233.66162794 -153.79845157 232.33089967 -154.625 231 C-155.01107422 230.38560059 -155.39714844 229.77120117 -155.79492188 229.13818359 C-159.52067881 223.00524356 -160.91853765 216.53874202 -162.34765625 209.5703125 C-162.64940841 207.74303657 -162.64940841 207.74303657 -163.8125 206.75 C-172.29008922 163.00068921 -166.54931763 105.336236 -147.5625 65.375 C-147.11003906 64.39789063 -146.65757812 63.42078125 -146.19140625 62.4140625 C-137.33913777 43.76726728 -121.14645299 23.91155642 -101.57421875 16.05078125 C-95.38818396 13.91168511 -89.26364941 11.90446678 -82.8125 10.75 C-81.82902588 10.57194824 -80.84555176 10.39389648 -79.83227539 10.21044922 C-68.02340723 8.35110742 -56.29778348 8.52481648 -44.375 8.625 C-42.27539492 8.63505605 -40.17578515 8.64417723 -38.07617188 8.65234375 C-32.98816299 8.67413504 -27.90038488 8.70851834 -22.8125 8.75 C-22.95558594 7.81027344 -22.95558594 7.81027344 -23.1015625 6.8515625 C-23.21242188 6.03429687 -23.32328125 5.21703125 -23.4375 4.375 C-23.55351562 3.56289062 -23.66953125 2.75078125 -23.7890625 1.9140625 C-23.79679688 1.19992188 -23.80453125 0.48578125 -23.8125 -0.25 C-17.56104564 -6.50145436 -7.0491515 -3.04849011 0 0 Z M-66.8125 26.3125 C-67.53959167 26.47368317 -68.26668335 26.63486633 -69.01580811 26.80093384 C-84.88715993 30.37986474 -99.42674565 35.89704882 -111.8125 46.75 C-112.35052246 47.20052734 -112.88854492 47.65105469 -113.44287109 48.11523438 C-119.3734867 53.47191944 -122.69636284 60.22726187 -126.3125 67.25 C-126.97660776 68.52452118 -127.64107945 69.7988528 -128.3059082 71.07299805 C-129.59249731 73.54600836 -130.86925551 76.02375652 -132.13916016 78.50537109 C-133.45842267 81.0634392 -134.80944192 83.59341125 -136.19921875 86.11328125 C-141.2340865 95.75707349 -142.81445 105.66670154 -144.30395508 116.35717773 C-144.68370368 118.89071894 -145.10806204 121.39342964 -145.5769043 123.91040039 C-147.69115343 135.57556643 -148.25067925 146.90564741 -148.14868164 158.75024414 C-148.12482327 161.70941986 -148.12818572 164.66770365 -148.13476562 167.62695312 C-148.12118835 177.16768638 -147.97186666 186.40707174 -145.8125 195.75 C-145.6462915 196.52013428 -145.48008301 197.29026855 -145.30883789 198.08374023 C-141.4102183 215.19801945 -134.1633858 229.41930854 -122.8125 242.75 C-122.26335937 243.42417969 -121.71421875 244.09835937 -121.1484375 244.79296875 C-113.67833971 253.1633091 -102.13558232 258.27806188 -92.1875 263.125 C-91.22287842 263.60731079 -91.22287842 263.60731079 -90.23876953 264.09936523 C-62.26978185 277.25000106 -24.97270796 276.26413421 4.1875 268.75 C5.29762451 268.46962891 5.29762451 268.46962891 6.43017578 268.18359375 C25.97956311 263.05775294 41.86146622 250.9647632 54.58984375 235.578125 C56.29209222 233.63031991 58.14079109 231.97991409 60.0625 230.25 C69.53804285 220.88442476 74.86750073 206.75445431 80.1875 194.75 C80.68378906 193.66074219 81.18007813 192.57148438 81.69140625 191.44921875 C83.52597731 186.91308613 84.90999743 182.32700391 86.25 177.625 C86.50587891 176.76390625 86.76175781 175.9028125 87.02539062 175.015625 C90.29977024 163.60159221 91.55840622 152.35474436 91.5 140.5 C91.49581055 139.3248584 91.49162109 138.1497168 91.48730469 136.93896484 C91.2669633 119.86719558 87.48320085 104.32444387 80.9375 88.5625 C80.68645508 87.93335693 80.43541016 87.30421387 80.17675781 86.65600586 C75.55054541 75.97896188 66.573041 67.78710206 58.45214844 59.69897461 C56.8129025 58.06290172 55.18750093 56.4138799 53.5625 54.76367188 C47.08884772 48.25192487 40.49343392 41.90296696 32.1875 37.75 C29.84259444 37.77354029 29.84259444 37.77354029 27.25 38.0625 C26.37472656 38.14113281 25.49945313 38.21976563 24.59765625 38.30078125 C21.9367329 38.63345136 21.9367329 38.63345136 19.1875 40.75 C12.40812496 41.74043766 8.33298308 38.96573459 2.8125 35.5 C-3.24448977 31.77788209 -9.19712841 28.38408634 -15.8125 25.75 C-16.53824219 25.45730225 -17.26398438 25.16460449 -18.01171875 24.86303711 C-33.64822292 19.07346287 -51.05732063 22.73622135 -66.8125 26.3125 Z " fill="#040404" transform="translate(283.8125,111.25)"/>
<path d="M0 0 C1.8125 0.0625 1.8125 0.0625 4 1 C5.54281851 4.08563701 6.70989472 7.18350459 7.86328125 10.4296875 C12.94692267 21.92465675 23.57536068 28.7644386 34.0625 34.75 C34.72314453 35.12713135 35.38378906 35.5042627 36.06445312 35.89282227 C49.99304776 43.60773141 64.28043858 45.26699127 80 45.3125 C81.15733643 45.31789795 82.31467285 45.3232959 83.50708008 45.32885742 C89.71744415 45.27708563 95.06460215 44.82341376 101 43 C101.69947754 42.79753662 102.39895508 42.59507324 103.11962891 42.38647461 C119.44057179 37.60473732 131.63441473 30.85054111 141.640625 16.796875 C142.99911599 15.00116852 144.2698778 13.44474122 146 12 C146.99 12 147.98 12 149 12 C149.65100342 22.49951673 145.07587141 34.14174484 138.5625 42.25 C132.28080016 49.3299269 125.58213861 54.13495416 117.125 58.3125 C116.27808594 58.75400391 115.43117188 59.19550781 114.55859375 59.65039062 C113.71683594 60.07126953 112.87507813 60.49214844 112.0078125 60.92578125 C111.26160645 61.30130127 110.51540039 61.67682129 109.74658203 62.0637207 C100.94906028 65.06269812 90.78035271 64.28584544 81.59228516 64.35009766 C79.87827894 64.36656296 78.16433866 64.39372675 76.45068359 64.43212891 C61.12778455 64.77185001 47.31715945 62.50921417 33.625 55.1875 C32.64660156 54.67884399 32.64660156 54.67884399 31.6484375 54.15991211 C16.72447814 46.20034471 7.29567365 36.76860316 1 21 C0.65839844 20.16984375 0.31679687 19.3396875 -0.03515625 18.484375 C-1.93984 13.41703031 -2.83576675 8.40534862 -2 3 C-1.34 2.01 -0.68 1.02 0 0 Z " fill="#060606" transform="translate(177,265)"/>
<path d="M0 0 C4.43118719 2.13646525 7.2290203 4.37577522 9 9 C9.75792079 13.58963146 10.27365498 17.97759028 7.7109375 22.046875 C4.75197794 24.88423348 2.05536477 26.36317045 -2.0625 26.625 C-7.6674583 25.73532408 -10.55722625 23.59874929 -14.3125 19.4375 C-17.40578702 14.96941875 -17.92562183 10.28530066 -17 5 C-12.52184279 -0.93053252 -7.08555573 -1.13875003 0 0 Z " fill="#060606" transform="translate(210,217)"/>
<path d="M0 0 C4.40524359 0.98863552 7.07441964 3.2815744 10.2421875 6.34375 C11.92794754 9.62161675 11.79950191 11.88745711 11.3671875 15.53125 C9.63539015 20.45862579 6.91220864 23.56140554 2.23046875 25.8671875 C-0.96851784 27.00728754 -3.2950878 27.08753745 -6.6328125 26.53125 C-11.60100618 22.69219125 -14.12153459 18.29215071 -15.2578125 12.15625 C-14.48206256 7.65690036 -12.96108783 5.35072119 -9.83203125 2.08203125 C-6.54545924 -0.23549822 -3.93622851 -0.33499817 0 0 Z " fill="#090909" transform="translate(300.6328125,217.46875)"/>
</svg>
