<?xml version="1.0" standalone="no"?>
<svg xmlns:xlink="http://www.w3.org/1999/xlink" id="wave" style="transform:rotate(180deg); transition: 0.3s" viewBox="0 0 1440 490" version="1.1" xmlns="http://www.w3.org/2000/svg"><defs><linearGradient id="sw-gradient-0" x1="0" x2="0" y1="1" y2="0"><stop stop-color="rgba(243, 106, 62, 1)" offset="0%"/><stop stop-color="rgba(255, 179, 11, 1)" offset="100%"/></linearGradient></defs><path style="transform:translate(0, 0px); opacity:1" fill="url(#sw-gradient-0)" d="M0,343L30,294C60,245,120,147,180,147C240,147,300,245,360,236.8C420,229,480,114,540,98C600,82,660,163,720,228.7C780,294,840,343,900,359.3C960,376,1020,359,1080,326.7C1140,294,1200,245,1260,253.2C1320,261,1380,327,1440,318.5C1500,310,1560,229,1620,187.8C1680,147,1740,147,1800,155.2C1860,163,1920,180,1980,228.7C2040,278,2100,359,2160,383.8C2220,408,2280,376,2340,375.7C2400,376,2460,408,2520,424.7C2580,441,2640,441,2700,408.3C2760,376,2820,310,2880,253.2C2940,196,3000,147,3060,138.8C3120,131,3180,163,3240,212.3C3300,261,3360,327,3420,326.7C3480,327,3540,261,3600,245C3660,229,3720,261,3780,294C3840,327,3900,359,3960,310.3C4020,261,4080,131,4140,138.8C4200,147,4260,294,4290,367.5L4320,441L4320,490L4290,490C4260,490,4200,490,4140,490C4080,490,4020,490,3960,490C3900,490,3840,490,3780,490C3720,490,3660,490,3600,490C3540,490,3480,490,3420,490C3360,490,3300,490,3240,490C3180,490,3120,490,3060,490C3000,490,2940,490,2880,490C2820,490,2760,490,2700,490C2640,490,2580,490,2520,490C2460,490,2400,490,2340,490C2280,490,2220,490,2160,490C2100,490,2040,490,1980,490C1920,490,1860,490,1800,490C1740,490,1680,490,1620,490C1560,490,1500,490,1440,490C1380,490,1320,490,1260,490C1200,490,1140,490,1080,490C1020,490,960,490,900,490C840,490,780,490,720,490C660,490,600,490,540,490C480,490,420,490,360,490C300,490,240,490,180,490C120,490,60,490,30,490L0,490Z"/></svg>